<svg xmlns="http://www.w3.org/2000/svg" xmlns:xlink="http://www.w3.org/1999/xlink" width="58" height="36" viewBox="0 0 58 36">
  <defs>
    <clipPath id="clip-path">
      <rect id="Rectángulo_6546" data-name="Rectángulo 6546" width="58" height="36" rx="5" transform="translate(504 451)" fill="#707070"/>
    </clipPath>
    <clipPath id="clip-arg">
      <rect width="58" height="36"/>
    </clipPath>
  </defs>
  <g id="arg" clip-path="url(#clip-arg)">
    <g id="Enmascarar_grupo_10" data-name="Enmascarar grupo 10" transform="translate(-504 -451)" clip-path="url(#clip-path)">
      <g id="Grupo_466" data-name="Grupo 466" transform="translate(499.167 451)">
        <path id="Trazado_705" data-name="Trazado 705" d="M0,0H67.667V11.951H0Z" transform="translate(0 24.049)" fill="#74acdf"/>
        <path id="Trazado_707" data-name="Trazado 707" d="M0,0H67.667V11.951H0Z" fill="#74acdf"/>
        <path id="Trazado_706" data-name="Trazado 706" d="M0,0H67.667V12.1H0Z" transform="translate(0 11.951)" fill="#fff"/>
        <path id="ray1" d="M396.84,248.888l2.076,4.628s.036.088.093.064.022-.113.022-.113l-1.73-4.775m-.05,1.8c-.025.7.4,1.091.342,1.719a2.273,2.273,0,0,0,.36,1.228c.078.244-.085.391-.014.425s.224-.158.174-.506-.308-.451-.247-1.218-.307-.947-.217-1.647" transform="translate(-363.237 -230.79)" fill="#f6b40e"/>
        <path id="ray1_-_Contorno" data-name="ray1 - Contorno" d="M402.792,253.732a.08.08,0,0,1-.035-.008.072.072,0,0,1-.04-.076.337.337,0,0,1,.019-.074.443.443,0,0,0,.015-.3,1.417,1.417,0,0,0-.1-.218,1.7,1.7,0,0,1-.258-1.027,1.817,1.817,0,0,0-.158-.816,2.255,2.255,0,0,1-.184-.9l.079,0a2.188,2.188,0,0,0,.179.87,1.884,1.884,0,0,1,.163.851,1.633,1.633,0,0,0,.249.98,1.475,1.475,0,0,1,.11.232.522.522,0,0,1-.015.35.455.455,0,0,0-.015.05.069.069,0,0,0,.025-.016.548.548,0,0,0,.088-.446,1.025,1.025,0,0,0-.1-.294,1.61,1.61,0,0,1-.149-.934,1.926,1.926,0,0,0-.116-.829,1.679,1.679,0,0,1-.1-.82l.078.01a1.611,1.611,0,0,0,.1.784,2,2,0,0,1,.12.861,1.539,1.539,0,0,0,.142.893,1.1,1.1,0,0,1,.106.316.584.584,0,0,1-.129.531A.11.11,0,0,1,402.792,253.732Zm1.032-.286a.1.1,0,0,1-.078-.041.211.211,0,0,1-.032-.052v0l-1.615-4.823.075-.027,1.73,4.774a.173.173,0,0,1,.006.115.092.092,0,0,1-.084.057Zm-.036-.123c0,.01.025.048.041.041a.01.01,0,0,0,.006-.006.1.1,0,0,0-.006-.054h0l-.63-1.737Z" transform="translate(-368.071 -230.613)" fill="#85340a"/>
        <path id="Trazado_453" data-name="Trazado 453" d="M0,.19,2.12,4.82s.037.088.094.065.021-.112.021-.112L.461,0M.425,1.793c-.02.7.408,1.091.357,1.717a2.286,2.286,0,0,0,.371,1.227c.081.244-.082.389-.011.424s.224-.156.17-.5S1,4.206,1.055,3.442.74,2.5.824,1.8" transform="translate(33.657 17.825) rotate(22.5)" fill="#f6b40e"/>
        <path id="Trazado_453_-_Contorno" data-name="Trazado 453 - Contorno" d="M.772,5.22a.081.081,0,0,1-.035-.008A.073.073,0,0,1,.7,5.136a.33.33,0,0,1,.019-.074.438.438,0,0,0,.013-.3,1.443,1.443,0,0,0-.106-.218A1.711,1.711,0,0,1,.354,3.52a1.817,1.817,0,0,0-.165-.814A2.257,2.257,0,0,1,0,1.806l.079,0a2.19,2.19,0,0,0,.187.869,1.881,1.881,0,0,1,.17.85,1.639,1.639,0,0,0,.257.979A1.491,1.491,0,0,1,.8,4.739a.516.516,0,0,1-.012.349.432.432,0,0,0-.014.05A.068.068,0,0,0,.8,5.122a.538.538,0,0,0,.085-.444,1.031,1.031,0,0,0-.1-.293,1.609,1.609,0,0,1-.157-.932A1.92,1.92,0,0,0,.5,2.626,1.675,1.675,0,0,1,.4,1.808l.079.011a1.607,1.607,0,0,0,.1.782,1.99,1.99,0,0,1,.127.859,1.538,1.538,0,0,0,.149.891,1.111,1.111,0,0,1,.108.316A.573.573,0,0,1,.839,5.2.11.11,0,0,1,.772,5.22Zm1.033-.277A.106.106,0,0,1,1.726,4.9a.215.215,0,0,1-.032-.052v0L.034.026.108,0,1.883,4.772a.172.172,0,0,1,.007.115.088.088,0,0,1-.049.049A.09.09,0,0,1,1.805,4.943ZM1.767,4.82c0,.01.025.048.042.041a.01.01,0,0,0,.006-.006A.1.1,0,0,0,1.809,4.8h0L1.163,3.064Z" transform="translate(34.022 17.959) rotate(22.5)" fill="#85340a"/>
        <path id="Trazado_454" data-name="Trazado 454" d="M0,.186l2.153,4.6s.037.088.1.064.021-.111.021-.111L.463,0m-.03,1.78c-.018.7.415,1.083.366,1.7A2.256,2.256,0,0,0,1.178,4.7c.082.243-.081.385-.01.42s.225-.154.17-.5-.317-.449-.264-1.207S.753,2.476.836,1.785" transform="translate(33.735 17.77) rotate(45)" fill="#f6b40e"/>
        <path id="Trazado_454_-_Contorno" data-name="Trazado 454 - Contorno" d="M.788,5.18a.083.083,0,0,1-.036-.008A.073.073,0,0,1,.71,5.1a.322.322,0,0,1,.019-.073.428.428,0,0,0,.012-.3,1.433,1.433,0,0,0-.108-.217A1.685,1.685,0,0,1,.36,3.493a1.785,1.785,0,0,0-.169-.808,2.218,2.218,0,0,1-.2-.894l.08,0a2.152,2.152,0,0,0,.191.863A1.848,1.848,0,0,1,.44,3.5,1.615,1.615,0,0,0,.7,4.473,1.481,1.481,0,0,1,.817,4.7a.5.5,0,0,1-.011.346.421.421,0,0,0-.014.05.068.068,0,0,0,.025-.016A.525.525,0,0,0,.9,4.643a1.018,1.018,0,0,0-.1-.291,1.58,1.58,0,0,1-.161-.925,1.883,1.883,0,0,0-.127-.821A1.642,1.642,0,0,1,.4,1.794l.08.011a1.575,1.575,0,0,0,.108.777,1.952,1.952,0,0,1,.131.852,1.51,1.51,0,0,0,.153.885,1.1,1.1,0,0,1,.11.314.559.559,0,0,1-.124.524A.111.111,0,0,1,.788,5.18Zm1.041-.271a.108.108,0,0,1-.08-.042.214.214,0,0,1-.033-.052v0L.026.026.1,0l1.8,4.74a.168.168,0,0,1,.007.114.087.087,0,0,1-.049.049A.091.091,0,0,1,1.828,4.909ZM1.79,4.787c0,.01.026.048.042.041a.009.009,0,0,0,.006-.006.094.094,0,0,0-.007-.053h0L1.175,3.043Z" transform="translate(34.028 18.044) rotate(45)" fill="#85340a"/>
        <path id="Trazado_455" data-name="Trazado 455" d="M0,.187,2.154,4.742s.037.087.1.064.021-.11.021-.11L.468,0M.432,1.764c-.02.69.414,1.073.363,1.689a2.2,2.2,0,0,0,.377,1.208c.082.24-.083.382-.011.417s.227-.153.173-.495-.318-.445-.262-1.2S.752,2.456.837,1.77" transform="translate(33.83 17.748) rotate(67.5)" fill="#f6b40e"/>
        <path id="Trazado_455_-_Contorno" data-name="Trazado 455 - Contorno" d="M.784,5.136a.084.084,0,0,1-.036-.008.072.072,0,0,1-.041-.075.316.316,0,0,1,.019-.073.418.418,0,0,0,.013-.293,1.4,1.4,0,0,0-.108-.215A1.644,1.644,0,0,1,.359,3.464a1.739,1.739,0,0,0-.168-.8A2.161,2.161,0,0,1,0,1.777l.081,0a2.1,2.1,0,0,0,.19.855,1.8,1.8,0,0,1,.173.836A1.575,1.575,0,0,0,.7,4.435a1.447,1.447,0,0,1,.114.228A.492.492,0,0,1,.8,5.007a.415.415,0,0,0-.015.049A.07.07,0,0,0,.813,5.04.517.517,0,0,0,.9,4.6a.993.993,0,0,0-.1-.289A1.541,1.541,0,0,1,.637,3.4a1.835,1.835,0,0,0-.125-.814,1.6,1.6,0,0,1-.109-.8l.08.011a1.535,1.535,0,0,0,.106.77A1.9,1.9,0,0,1,.717,3.4a1.473,1.473,0,0,0,.151.877,1.07,1.07,0,0,1,.11.311.551.551,0,0,1-.127.52A.114.114,0,0,1,.784,5.136Zm1.05-.272a.109.109,0,0,1-.08-.041.21.21,0,0,1-.033-.051v0L.035.026.111,0l1.8,4.7a.164.164,0,0,1,.007.113.088.088,0,0,1-.05.048A.094.094,0,0,1,1.834,4.864ZM1.8,4.743c0,.01.026.048.042.041a.01.01,0,0,0,.006-.006.091.091,0,0,0-.006-.053h0L1.182,3.015Z" transform="translate(33.994 18.107) rotate(67.5)" fill="#85340a"/>
        <path id="ray2" d="M398.85,251.3c.033.676.408.975.334,1.591.162-.487-.228-.865-.206-1.584m-.558-1.774,1.422,3.179-1.192-3.276" transform="translate(-364.702 -231.48)" fill="#85340a"/>
        <path id="Trazado_456" data-name="Trazado 456" d="M.445,1.859c.039.674.417.975.348,1.589C.951,2.964.557,2.584.574,1.867M0,.1l1.452,3.18L.23,0" transform="translate(33.742 17.918) rotate(22.5)" fill="#85340a"/>
        <path id="Trazado_457" data-name="Trazado 457" d="M.454,1.845c.041.669.423.969.356,1.577.158-.48-.24-.858-.226-1.569M0,.093,1.474,3.252.232,0" transform="translate(33.779 17.891) rotate(45)" fill="#85340a"/>
        <path id="Trazado_458" data-name="Trazado 458" d="M.452,1.829c.039.663.423.96.353,1.563.161-.476-.239-.85-.222-1.555M0,.093,1.475,3.222.234,0" transform="translate(33.826 17.878) rotate(67.5)" fill="#85340a"/>
        <path id="ray1-2" data-name="ray1" d="M0,.191,2.124,4.714s.037.086.1.063.022-.11.022-.11L.472,0M.421,1.76C.4,2.448.828,2.826.771,3.441a2.153,2.153,0,0,0,.369,1.2c.08.239-.087.382-.015.416s.229-.155.178-.494-.315-.44-.253-1.191S.736,2.447.828,1.762" transform="translate(33.929 17.763) rotate(90)" fill="#f6b40e"/>
        <path id="ray1_-_Contorno-2" data-name="ray1 - Contorno" d="M.764,5.114a.084.084,0,0,1-.036-.008.07.07,0,0,1-.041-.074.317.317,0,0,1,.02-.073.415.415,0,0,0,.015-.292,1.366,1.366,0,0,0-.106-.213,1.61,1.61,0,0,1-.264-1,1.707,1.707,0,0,0-.162-.8A2.12,2.12,0,0,1,0,1.772l.081,0a2.058,2.058,0,0,0,.184.851,1.768,1.768,0,0,1,.167.832,1.543,1.543,0,0,0,.254.958A1.411,1.411,0,0,1,.8,4.643a.489.489,0,0,1-.016.342.417.417,0,0,0-.015.049.071.071,0,0,0,.025-.016.517.517,0,0,0,.09-.436.97.97,0,0,0-.1-.287,1.513,1.513,0,0,1-.152-.913,1.8,1.8,0,0,0-.119-.81,1.575,1.575,0,0,1-.1-.8l.08.01a1.511,1.511,0,0,0,.1.767,1.87,1.87,0,0,1,.123.841,1.447,1.447,0,0,0,.145.873,1.046,1.046,0,0,1,.108.309.553.553,0,0,1-.131.519A.116.116,0,0,1,.764,5.114Zm1.056-.28a.108.108,0,0,1-.08-.04.2.2,0,0,1-.032-.051v0L.054.027.13,0,1.9,4.666a.162.162,0,0,1,.006.113.09.09,0,0,1-.05.049A.1.1,0,0,1,1.82,4.835Zm-.037-.121c0,.01.025.047.042.04a.01.01,0,0,0,.006-.006A.09.09,0,0,0,1.825,4.7h0L1.181,3Z" transform="translate(33.942 18.143) rotate(90)" fill="#85340a"/>
        <path id="Trazado_459" data-name="Trazado 459" d="M0,.2l2.08,4.522s.036.086.095.062S2.2,4.67,2.2,4.67L.472,0M.407,1.768c-.031.69.4,1.067.336,1.684a2.141,2.141,0,0,0,.358,1.2c.078.239-.089.384-.018.417s.23-.157.181-.5-.31-.439-.242-1.193S.716,2.454.813,1.767" transform="translate(34.015 17.82) rotate(112.5)" fill="#f6b40e"/>
        <path id="Trazado_459_-_Contorno" data-name="Trazado 459 - Contorno" d="M.74,5.127A.083.083,0,0,1,.7,5.119a.069.069,0,0,1-.04-.074.324.324,0,0,1,.02-.073A.421.421,0,0,0,.7,4.679a1.348,1.348,0,0,0-.1-.213,1.6,1.6,0,0,1-.255-1,1.707,1.707,0,0,0-.155-.8A2.119,2.119,0,0,1,.006,1.78l.081,0a2.056,2.056,0,0,0,.176.852,1.768,1.768,0,0,1,.159.833,1.538,1.538,0,0,0,.246.959,1.393,1.393,0,0,1,.11.227A.5.5,0,0,1,.76,5a.426.426,0,0,0-.015.049A.073.073,0,0,0,.77,5.03a.527.527,0,0,0,.093-.438.963.963,0,0,0-.1-.287A1.514,1.514,0,0,1,.62,3.39a1.809,1.809,0,0,0-.112-.812,1.581,1.581,0,0,1-.1-.8l.08.01a1.516,1.516,0,0,0,.093.768A1.875,1.875,0,0,1,.7,3.4a1.447,1.447,0,0,0,.137.875,1.038,1.038,0,0,1,.105.309A.564.564,0,0,1,.808,5.1.117.117,0,0,1,.74,5.127Zm1.055-.289a.105.105,0,0,1-.08-.04.2.2,0,0,1-.032-.051v0L.073.028.15,0,1.876,4.668a.163.163,0,0,1,0,.113.092.092,0,0,1-.051.049A.1.1,0,0,1,1.794,4.838Zm-.036-.121c0,.01.025.047.042.04a.01.01,0,0,0,.006-.006A.09.09,0,0,0,1.8,4.7h0L1.172,3Z" transform="translate(33.889 18.158) rotate(112.5)" fill="#85340a"/>
        <path id="Trazado_460" data-name="Trazado 460" d="M0,.2,2.049,4.752s.035.087.094.062.023-.112.023-.112L.469,0M.4,1.783c-.034.7.39,1.074.327,1.7a2.17,2.17,0,0,0,.351,1.21c.076.241-.09.387-.019.421s.228-.159.182-.5S.932,4.166,1,3.406.7,2.474.8,1.78" transform="translate(34.07 17.904) rotate(135)" fill="#f6b40e"/>
        <path id="Trazado_460_-_Contorno" data-name="Trazado 460 - Contorno" d="M.725,5.167a.08.08,0,0,1-.036-.008.069.069,0,0,1-.04-.075.332.332,0,0,1,.02-.074.431.431,0,0,0,.018-.3,1.358,1.358,0,0,0-.1-.214,1.63,1.63,0,0,1-.25-1.012,1.739,1.739,0,0,0-.151-.8,2.157,2.157,0,0,1-.176-.889l.08,0a2.093,2.093,0,0,0,.172.859,1.8,1.8,0,0,1,.155.84,1.562,1.562,0,0,0,.24.966,1.4,1.4,0,0,1,.109.228.507.507,0,0,1-.019.347.437.437,0,0,0-.015.05.073.073,0,0,0,.025-.017.54.54,0,0,0,.094-.442.976.976,0,0,0-.1-.289,1.543,1.543,0,0,1-.14-.922A1.846,1.846,0,0,0,.5,2.6a1.613,1.613,0,0,1-.093-.81L.49,1.8a1.547,1.547,0,0,0,.09.774,1.913,1.913,0,0,1,.112.849A1.475,1.475,0,0,0,.825,4.3a1.052,1.052,0,0,1,.1.311.578.578,0,0,1-.136.527A.116.116,0,0,1,.725,5.167Zm1.047-.295a.1.1,0,0,1-.079-.04.2.2,0,0,1-.032-.051v0L.081.028.157,0l1.7,4.7a.166.166,0,0,1,0,.114.093.093,0,0,1-.05.05A.094.094,0,0,1,1.772,4.872ZM1.736,4.75c0,.01.025.047.041.04a.01.01,0,0,0,.006-.006.092.092,0,0,0-.005-.053h0L1.161,3.02Z" transform="translate(33.833 18.162) rotate(135)" fill="#85340a"/>
        <path id="Trazado_461" data-name="Trazado 461" d="M0,.2,2.047,4.8s.035.088.093.063.023-.113.023-.113L.465,0M.4,1.8C.369,2.5.791,2.88.73,3.507a2.225,2.225,0,0,0,.352,1.221c.077.243-.088.39-.018.424s.226-.16.179-.506S.937,4.2,1,3.435.7,2.494.8,1.8" transform="translate(34.087 18.004) rotate(157.5)" fill="#f6b40e"/>
        <path id="Trazado_461_-_Contorno" data-name="Trazado 461 - Contorno" d="M.728,5.211A.079.079,0,0,1,.692,5.2a.071.071,0,0,1-.04-.075.338.338,0,0,1,.02-.074.441.441,0,0,0,.017-.3,1.39,1.39,0,0,0-.1-.216A1.671,1.671,0,0,1,.336,3.518a1.785,1.785,0,0,0-.152-.812,2.214,2.214,0,0,1-.178-.9l.079,0a2.148,2.148,0,0,0,.173.866,1.848,1.848,0,0,1,.157.847A1.6,1.6,0,0,0,.657,4.5a1.436,1.436,0,0,1,.108.23.518.518,0,0,1-.018.349.444.444,0,0,0-.015.05.071.071,0,0,0,.025-.017.549.549,0,0,0,.092-.445,1,1,0,0,0-.1-.292,1.582,1.582,0,0,1-.142-.93A1.894,1.894,0,0,0,.5,2.62,1.655,1.655,0,0,1,.406,1.8l.079.01a1.587,1.587,0,0,0,.092.781,1.963,1.963,0,0,1,.114.857,1.513,1.513,0,0,0,.135.889,1.079,1.079,0,0,1,.1.314.586.586,0,0,1-.133.53A.113.113,0,0,1,.728,5.211Zm1.038-.294a.1.1,0,0,1-.078-.04.206.206,0,0,1-.031-.052v0L.072.028.148,0l1.7,4.744a.17.17,0,0,1,0,.115.094.094,0,0,1-.085.058ZM1.73,4.794c0,.01.024.048.041.041a.01.01,0,0,0,.006-.006.1.1,0,0,0-.006-.054h0L1.153,3.048Z" transform="translate(33.765 18.151) rotate(157.5)" fill="#85340a"/>
        <path id="ray2-2" data-name="ray2" d="M.44,1.822c.034.661.417.953.342,1.555C.947,2.9.548,2.532.571,1.829M0,.1,1.455,3.2.236,0" transform="translate(33.875 17.883) rotate(90)" fill="#85340a"/>
        <path id="Trazado_462" data-name="Trazado 462" d="M.424,1.827c.028.663.408.953.328,1.558.169-.479-.225-.846-.2-1.552M0,.1,1.425,3.2.236,0" transform="translate(33.919 17.906) rotate(112.5)" fill="#85340a"/>
        <path id="Trazado_463" data-name="Trazado 463" d="M.415,1.842c.026.668.4.959.32,1.569C.9,2.928.514,2.559.545,1.847M0,.1,1.4,3.226.235,0" transform="translate(33.947 17.948) rotate(135)" fill="#85340a"/>
        <path id="Trazado_464" data-name="Trazado 464" d="M.417,1.857c.028.673.4.969.323,1.583C.906,2.954.518,2.58.546,1.863M0,.1,1.4,3.256.232,0" transform="translate(33.957 17.995) rotate(157.5)" fill="#85340a"/>
        <path id="ray1-3" data-name="ray1" d="M0,.2,2.076,4.823s.036.088.093.064.022-.113.022-.113L.461,0M.411,1.8c-.025.7.4,1.091.343,1.719a2.273,2.273,0,0,0,.36,1.228c.078.244-.085.391-.014.425s.224-.158.174-.506S.966,4.217,1.026,3.45.72,2.5.809,1.8" transform="translate(34.064 18.098) rotate(180)" fill="#f6b40e"/>
        <path id="ray1_-_Contorno-3" data-name="ray1 - Contorno" d="M.747,5.233a.079.079,0,0,1-.035-.008.072.072,0,0,1-.04-.076.337.337,0,0,1,.019-.074.443.443,0,0,0,.015-.3,1.425,1.425,0,0,0-.1-.218A1.7,1.7,0,0,1,.344,3.531a1.817,1.817,0,0,0-.158-.816A2.255,2.255,0,0,1,0,1.813l.079,0a2.188,2.188,0,0,0,.179.87,1.882,1.882,0,0,1,.163.851,1.634,1.634,0,0,0,.249.98,1.473,1.473,0,0,1,.11.232.522.522,0,0,1-.015.35.442.442,0,0,0-.015.05.069.069,0,0,0,.025-.016.548.548,0,0,0,.088-.446,1.024,1.024,0,0,0-.1-.294,1.61,1.61,0,0,1-.149-.934A1.925,1.925,0,0,0,.5,2.632a1.681,1.681,0,0,1-.1-.82l.079.01a1.612,1.612,0,0,0,.1.784,2,2,0,0,1,.12.861,1.539,1.539,0,0,0,.142.893,1.1,1.1,0,0,1,.105.316.584.584,0,0,1-.129.531A.111.111,0,0,1,.747,5.233Zm1.032-.286A.1.1,0,0,1,1.7,4.905a.211.211,0,0,1-.032-.052v0L.053.027.127,0l1.73,4.774a.173.173,0,0,1,.006.115.092.092,0,0,1-.084.057Zm-.037-.123c0,.01.025.048.041.041a.01.01,0,0,0,.006-.006A.1.1,0,0,0,1.784,4.8h0L1.154,3.066Z" transform="translate(33.693 18.112) rotate(180)" fill="#85340a"/>
        <path id="Trazado_465" data-name="Trazado 465" d="M0,.19,2.12,4.82s.037.088.094.065.021-.112.021-.112L.461,0M.425,1.793c-.02.7.408,1.091.357,1.717a2.286,2.286,0,0,0,.371,1.227c.081.244-.082.389-.011.424s.224-.156.17-.5S1,4.206,1.055,3.442.74,2.5.824,1.8" transform="translate(34.01 18.175) rotate(-157.5)" fill="#f6b40e"/>
        <path id="Trazado_465_-_Contorno" data-name="Trazado 465 - Contorno" d="M.772,5.22a.081.081,0,0,1-.035-.008A.073.073,0,0,1,.7,5.136a.33.33,0,0,1,.019-.074.438.438,0,0,0,.013-.3,1.443,1.443,0,0,0-.106-.218A1.711,1.711,0,0,1,.354,3.52a1.817,1.817,0,0,0-.165-.814A2.257,2.257,0,0,1,0,1.806l.079,0a2.19,2.19,0,0,0,.187.869,1.881,1.881,0,0,1,.17.85,1.639,1.639,0,0,0,.257.979A1.491,1.491,0,0,1,.8,4.739a.516.516,0,0,1-.012.349.432.432,0,0,0-.014.05A.068.068,0,0,0,.8,5.122a.538.538,0,0,0,.085-.444,1.031,1.031,0,0,0-.1-.293,1.609,1.609,0,0,1-.157-.932A1.92,1.92,0,0,0,.5,2.626,1.675,1.675,0,0,1,.4,1.808l.079.011a1.607,1.607,0,0,0,.1.782,1.99,1.99,0,0,1,.127.859,1.538,1.538,0,0,0,.149.891,1.111,1.111,0,0,1,.108.316A.573.573,0,0,1,.839,5.2.11.11,0,0,1,.772,5.22Zm1.033-.277A.106.106,0,0,1,1.726,4.9a.215.215,0,0,1-.032-.052v0L.034.026.108,0,1.883,4.772a.172.172,0,0,1,.007.115.088.088,0,0,1-.049.049A.09.09,0,0,1,1.805,4.943ZM1.767,4.82c0,.01.025.048.042.041a.01.01,0,0,0,.006-.006A.1.1,0,0,0,1.809,4.8h0L1.163,3.064Z" transform="translate(33.645 18.041) rotate(-157.5)" fill="#85340a"/>
        <path id="Trazado_466" data-name="Trazado 466" d="M0,.186l2.153,4.6s.037.088.1.064.021-.111.021-.111L.463,0m-.03,1.78c-.018.7.415,1.083.366,1.7A2.256,2.256,0,0,0,1.178,4.7c.082.243-.081.385-.01.42s.225-.154.17-.5-.317-.449-.264-1.207S.753,2.476.836,1.785" transform="translate(33.932 18.23) rotate(-135)" fill="#f6b40e"/>
        <path id="Trazado_466_-_Contorno" data-name="Trazado 466 - Contorno" d="M.788,5.18a.083.083,0,0,1-.036-.008A.073.073,0,0,1,.71,5.1a.322.322,0,0,1,.019-.073.428.428,0,0,0,.012-.3,1.433,1.433,0,0,0-.108-.217A1.685,1.685,0,0,1,.36,3.493a1.785,1.785,0,0,0-.169-.808,2.218,2.218,0,0,1-.2-.894l.08,0a2.152,2.152,0,0,0,.191.863A1.848,1.848,0,0,1,.44,3.5,1.615,1.615,0,0,0,.7,4.473,1.481,1.481,0,0,1,.817,4.7a.5.5,0,0,1-.011.346.421.421,0,0,0-.014.05.068.068,0,0,0,.025-.016A.525.525,0,0,0,.9,4.643a1.018,1.018,0,0,0-.1-.291,1.58,1.58,0,0,1-.161-.925,1.883,1.883,0,0,0-.127-.821A1.642,1.642,0,0,1,.4,1.794l.08.011a1.575,1.575,0,0,0,.108.777,1.952,1.952,0,0,1,.131.852,1.51,1.51,0,0,0,.153.885,1.1,1.1,0,0,1,.11.314.559.559,0,0,1-.124.524A.111.111,0,0,1,.788,5.18Zm1.041-.271a.108.108,0,0,1-.08-.042.214.214,0,0,1-.033-.052v0L.026.026.1,0l1.8,4.74a.168.168,0,0,1,.007.114.087.087,0,0,1-.049.049A.091.091,0,0,1,1.828,4.909ZM1.79,4.787c0,.01.026.048.042.041a.009.009,0,0,0,.006-.006.094.094,0,0,0-.007-.053h0L1.175,3.043Z" transform="translate(33.639 17.956) rotate(-135)" fill="#85340a"/>
        <path id="Trazado_467" data-name="Trazado 467" d="M0,.187,2.154,4.742s.037.087.1.064.021-.11.021-.11L.468,0M.432,1.764c-.02.69.414,1.073.363,1.689a2.2,2.2,0,0,0,.377,1.208c.082.24-.083.382-.011.417s.227-.153.173-.495-.318-.445-.262-1.2S.752,2.456.837,1.77" transform="translate(33.837 18.252) rotate(-112.5)" fill="#f6b40e"/>
        <path id="Trazado_467_-_Contorno" data-name="Trazado 467 - Contorno" d="M.784,5.136a.084.084,0,0,1-.036-.008.072.072,0,0,1-.041-.075.316.316,0,0,1,.019-.073.418.418,0,0,0,.013-.293,1.4,1.4,0,0,0-.108-.215A1.644,1.644,0,0,1,.359,3.464a1.739,1.739,0,0,0-.168-.8A2.161,2.161,0,0,1,0,1.777l.081,0a2.1,2.1,0,0,0,.19.855,1.8,1.8,0,0,1,.173.836A1.575,1.575,0,0,0,.7,4.435a1.447,1.447,0,0,1,.114.228A.492.492,0,0,1,.8,5.007a.415.415,0,0,0-.015.049A.07.07,0,0,0,.813,5.04.517.517,0,0,0,.9,4.6a.993.993,0,0,0-.1-.289A1.541,1.541,0,0,1,.637,3.4a1.835,1.835,0,0,0-.125-.814,1.6,1.6,0,0,1-.109-.8l.08.011a1.535,1.535,0,0,0,.106.77A1.9,1.9,0,0,1,.717,3.4a1.473,1.473,0,0,0,.151.877,1.07,1.07,0,0,1,.11.311.551.551,0,0,1-.127.52A.114.114,0,0,1,.784,5.136Zm1.05-.272a.109.109,0,0,1-.08-.041.21.21,0,0,1-.033-.051v0L.035.026.111,0l1.8,4.7a.164.164,0,0,1,.007.113.088.088,0,0,1-.05.048A.094.094,0,0,1,1.834,4.864ZM1.8,4.743c0,.01.026.048.042.041a.01.01,0,0,0,.006-.006.091.091,0,0,0-.006-.053h0L1.182,3.015Z" transform="translate(33.673 17.893) rotate(-112.5)" fill="#85340a"/>
        <path id="ray2-3" data-name="ray2" d="M.43,1.864c.033.676.408.975.334,1.591C.925,2.968.536,2.591.558,1.871M0,.1,1.422,3.276.23,0" transform="translate(33.949 18.042) rotate(180)" fill="#85340a"/>
        <path id="Trazado_468" data-name="Trazado 468" d="M.445,1.859c.039.674.417.975.348,1.589C.951,2.964.557,2.584.574,1.867M0,.1l1.452,3.18L.23,0" transform="translate(33.924 18.082) rotate(-157.5)" fill="#85340a"/>
        <path id="Trazado_469" data-name="Trazado 469" d="M.454,1.845c.041.669.423.969.356,1.577.158-.48-.24-.858-.226-1.569M0,.093,1.474,3.252.232,0" transform="translate(33.887 18.109) rotate(-135)" fill="#85340a"/>
        <path id="Trazado_470" data-name="Trazado 470" d="M.452,1.829c.039.663.423.96.353,1.563.161-.476-.239-.85-.222-1.555M0,.093,1.475,3.222.234,0" transform="translate(33.841 18.122) rotate(-112.5)" fill="#85340a"/>
        <path id="ray1-4" data-name="ray1" d="M0,.191,2.124,4.714s.037.086.1.063.022-.11.022-.11L.472,0M.421,1.76C.4,2.448.828,2.826.771,3.441a2.153,2.153,0,0,0,.369,1.2c.08.239-.087.382-.015.416s.229-.155.178-.494-.315-.44-.253-1.191S.736,2.447.828,1.762" transform="translate(33.738 18.237) rotate(-90)" fill="#f6b40e"/>
        <path id="ray1_-_Contorno-4" data-name="ray1 - Contorno" d="M.764,5.114a.084.084,0,0,1-.036-.008.07.07,0,0,1-.041-.074.317.317,0,0,1,.02-.073.415.415,0,0,0,.015-.292,1.366,1.366,0,0,0-.106-.213,1.61,1.61,0,0,1-.264-1,1.707,1.707,0,0,0-.162-.8A2.12,2.12,0,0,1,0,1.772l.081,0a2.058,2.058,0,0,0,.184.851,1.768,1.768,0,0,1,.167.832,1.543,1.543,0,0,0,.254.958A1.411,1.411,0,0,1,.8,4.643a.489.489,0,0,1-.016.342.417.417,0,0,0-.015.049.071.071,0,0,0,.025-.016.517.517,0,0,0,.09-.436.97.97,0,0,0-.1-.287,1.513,1.513,0,0,1-.152-.913,1.8,1.8,0,0,0-.119-.81,1.575,1.575,0,0,1-.1-.8l.08.01a1.511,1.511,0,0,0,.1.767,1.87,1.87,0,0,1,.123.841,1.447,1.447,0,0,0,.145.873,1.046,1.046,0,0,1,.108.309.553.553,0,0,1-.131.519A.116.116,0,0,1,.764,5.114Zm1.056-.28a.108.108,0,0,1-.08-.04.2.2,0,0,1-.032-.051v0L.054.027.13,0,1.9,4.666a.162.162,0,0,1,.006.113.09.09,0,0,1-.05.049A.1.1,0,0,1,1.82,4.835Zm-.037-.121c0,.01.025.047.042.04a.01.01,0,0,0,.006-.006A.09.09,0,0,0,1.825,4.7h0L1.181,3Z" transform="translate(33.724 17.857) rotate(-90)" fill="#85340a"/>
        <path id="Trazado_471" data-name="Trazado 471" d="M0,.2l2.08,4.522s.036.086.095.062S2.2,4.67,2.2,4.67L.472,0M.407,1.768c-.031.69.4,1.067.336,1.684a2.141,2.141,0,0,0,.358,1.2c.078.239-.089.384-.018.417s.23-.157.181-.5-.31-.439-.242-1.193S.716,2.454.813,1.767" transform="translate(33.652 18.18) rotate(-67.5)" fill="#f6b40e"/>
        <path id="Trazado_471_-_Contorno" data-name="Trazado 471 - Contorno" d="M.74,5.127A.083.083,0,0,1,.7,5.119a.069.069,0,0,1-.04-.074.324.324,0,0,1,.02-.073A.421.421,0,0,0,.7,4.679a1.348,1.348,0,0,0-.1-.213,1.6,1.6,0,0,1-.255-1,1.707,1.707,0,0,0-.155-.8A2.119,2.119,0,0,1,.006,1.78l.081,0a2.056,2.056,0,0,0,.176.852,1.768,1.768,0,0,1,.159.833,1.538,1.538,0,0,0,.246.959,1.393,1.393,0,0,1,.11.227A.5.5,0,0,1,.76,5a.426.426,0,0,0-.015.049A.073.073,0,0,0,.77,5.03a.527.527,0,0,0,.093-.438.963.963,0,0,0-.1-.287A1.514,1.514,0,0,1,.62,3.39a1.809,1.809,0,0,0-.112-.812,1.581,1.581,0,0,1-.1-.8l.08.01a1.516,1.516,0,0,0,.093.768A1.875,1.875,0,0,1,.7,3.4a1.447,1.447,0,0,0,.137.875,1.038,1.038,0,0,1,.105.309A.564.564,0,0,1,.808,5.1.117.117,0,0,1,.74,5.127Zm1.055-.289a.105.105,0,0,1-.08-.04.2.2,0,0,1-.032-.051v0L.073.028.15,0,1.876,4.668a.163.163,0,0,1,0,.113.092.092,0,0,1-.051.049A.1.1,0,0,1,1.794,4.838Zm-.036-.121c0,.01.025.047.042.04a.01.01,0,0,0,.006-.006A.09.09,0,0,0,1.8,4.7h0L1.172,3Z" transform="translate(33.777 17.842) rotate(-67.5)" fill="#85340a"/>
        <path id="Trazado_472" data-name="Trazado 472" d="M0,.2,2.049,4.752s.035.087.094.062.023-.112.023-.112L.469,0M.4,1.783c-.034.7.39,1.074.327,1.7a2.17,2.17,0,0,0,.351,1.21c.076.241-.09.387-.019.421s.228-.159.182-.5S.932,4.166,1,3.406.7,2.474.8,1.78" transform="translate(33.596 18.096) rotate(-45)" fill="#f6b40e"/>
        <path id="Trazado_472_-_Contorno" data-name="Trazado 472 - Contorno" d="M.725,5.167a.08.08,0,0,1-.036-.008.069.069,0,0,1-.04-.075.332.332,0,0,1,.02-.074.431.431,0,0,0,.018-.3,1.358,1.358,0,0,0-.1-.214,1.63,1.63,0,0,1-.25-1.012,1.739,1.739,0,0,0-.151-.8,2.157,2.157,0,0,1-.176-.889l.08,0a2.093,2.093,0,0,0,.172.859,1.8,1.8,0,0,1,.155.84,1.562,1.562,0,0,0,.24.966,1.4,1.4,0,0,1,.109.228.507.507,0,0,1-.019.347.437.437,0,0,0-.015.05.073.073,0,0,0,.025-.017.54.54,0,0,0,.094-.442.976.976,0,0,0-.1-.289,1.543,1.543,0,0,1-.14-.922A1.846,1.846,0,0,0,.5,2.6a1.613,1.613,0,0,1-.093-.81L.49,1.8a1.547,1.547,0,0,0,.09.774,1.913,1.913,0,0,1,.112.849A1.475,1.475,0,0,0,.825,4.3a1.052,1.052,0,0,1,.1.311.578.578,0,0,1-.136.527A.116.116,0,0,1,.725,5.167Zm1.047-.295a.1.1,0,0,1-.079-.04.2.2,0,0,1-.032-.051v0L.081.028.157,0l1.7,4.7a.166.166,0,0,1,0,.114.093.093,0,0,1-.05.05A.094.094,0,0,1,1.772,4.872ZM1.736,4.75c0,.01.025.047.041.04a.01.01,0,0,0,.006-.006.092.092,0,0,0-.005-.053h0L1.161,3.02Z" transform="translate(33.835 17.838) rotate(-45)" fill="#85340a"/>
        <path id="Trazado_473" data-name="Trazado 473" d="M0,.2,2.047,4.8s.035.088.093.063.023-.113.023-.113L.465,0M.4,1.8C.369,2.5.791,2.88.73,3.507a2.225,2.225,0,0,0,.352,1.221c.077.243-.088.39-.018.424s.226-.16.179-.506S.937,4.2,1,3.435.7,2.494.8,1.8" transform="translate(33.58 17.996) rotate(-22.5)" fill="#f6b40e"/>
        <path id="Trazado_473_-_Contorno" data-name="Trazado 473 - Contorno" d="M.728,5.211A.079.079,0,0,1,.692,5.2a.071.071,0,0,1-.04-.075.338.338,0,0,1,.02-.074.441.441,0,0,0,.017-.3,1.39,1.39,0,0,0-.1-.216A1.671,1.671,0,0,1,.336,3.518a1.785,1.785,0,0,0-.152-.812,2.214,2.214,0,0,1-.178-.9l.079,0a2.148,2.148,0,0,0,.173.866,1.848,1.848,0,0,1,.157.847A1.6,1.6,0,0,0,.657,4.5a1.436,1.436,0,0,1,.108.23.518.518,0,0,1-.018.349.444.444,0,0,0-.015.05.071.071,0,0,0,.025-.017.549.549,0,0,0,.092-.445,1,1,0,0,0-.1-.292,1.582,1.582,0,0,1-.142-.93A1.894,1.894,0,0,0,.5,2.62,1.655,1.655,0,0,1,.406,1.8l.079.01a1.587,1.587,0,0,0,.092.781,1.963,1.963,0,0,1,.114.857,1.513,1.513,0,0,0,.135.889,1.079,1.079,0,0,1,.1.314.586.586,0,0,1-.133.53A.113.113,0,0,1,.728,5.211Zm1.038-.294a.1.1,0,0,1-.078-.04.206.206,0,0,1-.031-.052v0L.072.028.148,0l1.7,4.744a.17.17,0,0,1,0,.115.094.094,0,0,1-.085.058ZM1.73,4.794c0,.01.024.048.041.041a.01.01,0,0,0,.006-.006.1.1,0,0,0-.006-.054h0L1.153,3.048Z" transform="translate(33.903 17.849) rotate(-22.5)" fill="#85340a"/>
        <path id="ray2-4" data-name="ray2" d="M.44,1.822c.034.661.417.953.342,1.555C.947,2.9.548,2.532.571,1.829M0,.1,1.455,3.2.236,0" transform="translate(33.792 18.117) rotate(-90)" fill="#85340a"/>
        <path id="Trazado_474" data-name="Trazado 474" d="M.424,1.827c.028.663.408.953.328,1.558.169-.479-.225-.846-.2-1.552M0,.1,1.425,3.2.236,0" transform="translate(33.749 18.094) rotate(-67.5)" fill="#85340a"/>
        <path id="Trazado_475" data-name="Trazado 475" d="M.415,1.842c.026.668.4.959.32,1.569C.9,2.928.514,2.559.545,1.847M0,.1,1.4,3.226.235,0" transform="translate(33.72 18.052) rotate(-45)" fill="#85340a"/>
        <path id="Trazado_476" data-name="Trazado 476" d="M.417,1.857c.028.673.4.969.323,1.583C.906,2.954.518,2.58.546,1.863M0,.1,1.4,3.256.232,0" transform="translate(33.709 18.005) rotate(-22.5)" fill="#85340a"/>
        <ellipse id="Elipse_7" data-name="Elipse 7" cx="2.027" cy="2.074" rx="2.027" ry="2.074" transform="translate(31.807 15.926)" fill="#f6b40e"/>
        <path id="Elipse_7_-_Contorno" data-name="Elipse 7 - Contorno" d="M1.33-.75a2.027,2.027,0,0,1,.81.167A2.071,2.071,0,0,1,2.8-.127,2.125,2.125,0,0,1,3.247.55a2.181,2.181,0,0,1,0,1.657,2.125,2.125,0,0,1-.446.677,2.071,2.071,0,0,1-.661.456,2.044,2.044,0,0,1-1.62,0,2.071,2.071,0,0,1-.661-.456,2.125,2.125,0,0,1-.446-.677A2.181,2.181,0,0,1-.586.55,2.125,2.125,0,0,1-.141-.127,2.071,2.071,0,0,1,.521-.583,2.027,2.027,0,0,1,1.33-.75Zm0,4.148A2,2,0,0,0,3.3,1.378,2,2,0,0,0,1.33-.641,2,2,0,0,0-.643,1.378,2,2,0,0,0,1.33,3.4Z" transform="translate(32.503 16.622)" fill="#85340a"/>
        <path id="loweyecontour" d="M405.038,244.06a.4.4,0,0,0-.349.189.623.623,0,0,0,.734-.016.53.53,0,0,0-.385-.173Zm0,.033c.135,0,.261.061.278.124a.4.4,0,0,1-.561.033.327.327,0,0,1,.283-.156Z" transform="translate(-370.513 -226.504)" fill="#843511"/>
        <path id="Trazado_477" data-name="Trazado 477" d="M.471.272A.409.409,0,0,0,.814.144.4.4,0,0,1,.97.064C.985.049.97,0,.939.017A.892.892,0,0,0,.752.144a.383.383,0,0,1-.281.08C.19.224.034-.015,0,0S.159.272.471.272Z" transform="translate(35.022 17.73) rotate(180)" fill="#85340a"/>
        <path id="Trazado_478" data-name="Trazado 478" d="M0,.75A.8.8,0,0,0,1.06.877.632.632,0,0,0,1.177.611.785.785,0,0,0,1.013.032.116.116,0,0,0,1.076,0,1.158,1.158,0,0,1,1.2.728a1.05,1.05,0,0,1-.049.182A.737.737,0,0,1,0,.75Z" transform="translate(35.112 18.302) rotate(180)" fill="#85340a"/>
        <ellipse id="Elipse_8" data-name="Elipse 8" cx="0.14" cy="0.144" rx="0.14" ry="0.144" transform="translate(34.379 17.569)" fill="#85340a"/>
        <path id="Trazado_479" data-name="Trazado 479" d="M0,.164a.6.6,0,0,1,.686-.1C.842.164.842.2.811.2S.749.164.624.1A.753.753,0,0,0,0,.164Z" transform="translate(34.925 17.972) rotate(180)" fill="#85340a"/>
        <path id="Trazado_480" data-name="Trazado 480" d="M394.3,253.84a.144.144,0,0,0,.027.285.137.137,0,0,0,.114-.061.291.291,0,0,0,.169.047h.018a.291.291,0,0,0,.169-.047.137.137,0,0,0,.114.061.144.144,0,0,0,.027-.285.1.1,0,0,1,.062.091.094.094,0,0,1-.187,0,.211.211,0,0,1-.388,0,.094.094,0,1,1-.125-.1Z" transform="translate(-360.778 -235.554)" fill="#85340a"/>
        <path id="Trazado_481" data-name="Trazado 481" d="M393.292,259.53c-.156,0-.218.145-.358.24a2.8,2.8,0,0,0,.249-.159c.109-.064.2.014.265.014h0c.062,0,.155-.078.264-.014a2.785,2.785,0,0,0,.251.159c-.14-.1-.2-.24-.36-.24a.411.411,0,0,0-.155.049h0A.41.41,0,0,0,393.292,259.53Z" transform="translate(-359.616 -240.819)" fill="#85340a"/>
        <path id="Trazado_482" data-name="Trazado 482" d="M393.817,262.039a1.048,1.048,0,0,0-.26.051c.281-.064.343.033.467.033h0c.125,0,.187-.1.467-.033a.814.814,0,0,0-.467-.033h0A1.642,1.642,0,0,0,393.817,262.039Z" transform="translate(-360.194 -243.139)" fill="#85340a"/>
        <path id="Trazado_483" data-name="Trazado 483" d="M393,262.708c-.018,0-.038,0-.059,0,.328.032.17.224.513.224h0c.343,0,.188-.192.515-.224-.343-.032-.235.175-.515.175h0C393.187,262.885,393.268,262.7,393,262.708Z" transform="translate(-359.62 -243.758)" fill="#85340a"/>
        <path id="Trazado_484" data-name="Trazado 484" d="M396.719,266.1a.281.281,0,1,0-.561,0,.287.287,0,0,1,.561,0Z" transform="translate(-362.605 -246.633)" fill="#85340a"/>
        <path id="eyebrow_nose" d="M382.73,239.447a.8.8,0,0,1,1.06-.128.633.633,0,0,1,.116.267.785.785,0,0,1-.163.579.116.116,0,0,1,.063.032,1.159,1.159,0,0,0,.127-.728,1.057,1.057,0,0,0-.049-.182.737.737,0,0,0-1.154.16Z" transform="translate(-350.157 -221.894)" fill="#85340a"/>
        <path id="uppalpebra" d="M384.437,242.74a.409.409,0,0,1,.343.128.4.4,0,0,0,.156.08c.016.016,0,.064-.031.048a.893.893,0,0,1-.187-.128.383.383,0,0,0-.281-.08c-.281,0-.437.239-.468.223s.156-.271.468-.271Z" transform="translate(-351.302 -225.282)" fill="#85340a"/>
        <path id="Trazado_485" data-name="Trazado 485" d="M405.038,244.06a.4.4,0,0,0-.349.189.623.623,0,0,0,.734-.016.53.53,0,0,0-.385-.173Zm0,.033c.135,0,.261.061.278.124a.4.4,0,0,1-.561.033.327.327,0,0,1,.283-.156Z" transform="translate(-371.912 -226.504)" fill="#843511"/>
        <ellipse id="pupil" cx="0.14" cy="0.144" rx="0.14" ry="0.144" transform="translate(33.003 17.569)" fill="#85340a"/>
        <path id="lowpalpebra" d="M385.29,247.045a.6.6,0,0,0,.686.1c.156-.1.156-.128.125-.128s-.062.032-.187.1a.754.754,0,0,1-.624-.064Z" transform="translate(-352.53 -229.236)" fill="#85340a"/>
      </g>
    </g>
  </g>
</svg>
