<svg xmlns="http://www.w3.org/2000/svg" xmlns:xlink="http://www.w3.org/1999/xlink" width="58" height="36" viewBox="0 0 58 36">
  <defs>
    <clipPath id="clip-path">
      <rect id="Rectángulo_6549" data-name="Rectángulo 6549" width="58" height="36" rx="5" transform="translate(504 262)" fill="#707070"/>
    </clipPath>
    <clipPath id="clip-usa">
      <rect width="58" height="36"/>
    </clipPath>
  </defs>
  <g id="usa" clip-path="url(#clip-usa)">
    <g id="Enmascarar_grupo_7" data-name="Enmascarar grupo 7" transform="translate(-504 -262)" clip-path="url(#clip-path)">
      <g id="Grupo_463" data-name="Grupo 463" transform="translate(504 262)">
        <rect id="Rectángulo_6538" data-name="Rectángulo 6538" width="67.667" height="2.769" fill="#b31942"/>
        <rect id="Rectángulo_6540" data-name="Rectángulo 6540" width="67.667" height="2.769" transform="translate(0 2.77)" fill="#fff"/>
        <g id="Grupo_278" data-name="Grupo 278">
          <rect id="Rectángulo_6527" data-name="Rectángulo 6527" width="67.667" height="2.769" transform="translate(0 33.231)" fill="#b31942"/>
          <rect id="Rectángulo_6535" data-name="Rectángulo 6535" width="67.667" height="2.769" transform="translate(0 11.077)" fill="#b31942"/>
          <rect id="Rectángulo_6531" data-name="Rectángulo 6531" width="67.667" height="2.769" transform="translate(0 22.154)" fill="#b31942"/>
          <rect id="Rectángulo_6529" data-name="Rectángulo 6529" width="67.667" height="2.769" transform="translate(0 27.692)" fill="#b31942"/>
          <rect id="Rectángulo_6536" data-name="Rectángulo 6536" width="67.667" height="2.769" transform="translate(0 5.538)" fill="#b31942"/>
          <rect id="Rectángulo_6532" data-name="Rectángulo 6532" width="67.667" height="2.769" transform="translate(0 16.615)" fill="#b31942"/>
          <rect id="Rectángulo_6528" data-name="Rectángulo 6528" width="67.667" height="2.769" transform="translate(0 30.462)" fill="#fff"/>
          <rect id="Rectángulo_6537" data-name="Rectángulo 6537" width="67.667" height="2.769" transform="translate(0 8.308)" fill="#fff"/>
          <rect id="Rectángulo_6533" data-name="Rectángulo 6533" width="67.667" height="2.769" transform="translate(0 19.385)" fill="#fff"/>
          <rect id="Rectángulo_6530" data-name="Rectángulo 6530" width="67.667" height="2.769" transform="translate(0 24.923)" fill="#fff"/>
          <rect id="Rectángulo_6534" data-name="Rectángulo 6534" width="67.667" height="2.769" transform="translate(0 13.846)" fill="#fff"/>
          <g id="Grupo_273" data-name="Grupo 273">
            <g id="Grupo_271" data-name="Grupo 271">
              <path id="Trazado_742" data-name="Trazado 742" d="M0,0H27.067V19.385H0" fill="#0a3161"/>
              <path id="s" d="M133.915,90l.644,2-1.686-1.238h2.084L133.271,92Z" transform="translate(-131.66 -89.169)" fill="#fff"/>
              <path id="Trazado_743" data-name="Trazado 743" d="M133.915,90l.644,2-1.686-1.238h2.084L133.271,92Z" transform="translate(-131.66 -85.292)" fill="#fff"/>
              <path id="Trazado_744" data-name="Trazado 744" d="M133.915,90l.644,2-1.686-1.238h2.084L133.271,92Z" transform="translate(-131.66 -81.415)" fill="#fff"/>
              <path id="Trazado_745" data-name="Trazado 745" d="M133.915,90l.644,2-1.686-1.238h2.084L133.271,92Z" transform="translate(-131.66 -77.538)" fill="#fff"/>
              <path id="Trazado_746" data-name="Trazado 746" d="M133.915,90l.644,2-1.686-1.238h2.084L133.271,92Z" transform="translate(-131.66 -73.662)" fill="#fff"/>
              <path id="s-2" data-name="s" d="M133.915,90l.644,2-1.686-1.238h2.084L133.271,92Z" transform="translate(-129.404 -87.231)" fill="#fff"/>
              <path id="Trazado_747" data-name="Trazado 747" d="M133.915,90l.644,2-1.686-1.238h2.084L133.271,92Z" transform="translate(-129.404 -83.354)" fill="#fff"/>
              <path id="Trazado_748" data-name="Trazado 748" d="M133.915,90l.644,2-1.686-1.238h2.084L133.271,92Z" transform="translate(-129.404 -79.477)" fill="#fff"/>
              <path id="Trazado_749" data-name="Trazado 749" d="M133.915,90l.644,2-1.686-1.238h2.084L133.271,92Z" transform="translate(-129.404 -75.6)" fill="#fff"/>
              <path id="s-3" data-name="s" d="M133.915,90l.644,2-1.686-1.238h2.084L133.271,92Z" transform="translate(-127.149 -89.169)" fill="#fff"/>
              <path id="Trazado_750" data-name="Trazado 750" d="M133.915,90l.644,2-1.686-1.238h2.084L133.271,92Z" transform="translate(-127.149 -85.292)" fill="#fff"/>
              <path id="Trazado_751" data-name="Trazado 751" d="M133.915,90l.644,2-1.686-1.238h2.084L133.271,92Z" transform="translate(-127.149 -81.415)" fill="#fff"/>
              <path id="Trazado_752" data-name="Trazado 752" d="M133.915,90l.644,2-1.686-1.238h2.084L133.271,92Z" transform="translate(-127.149 -77.538)" fill="#fff"/>
              <path id="Trazado_753" data-name="Trazado 753" d="M133.915,90l.644,2-1.686-1.238h2.084L133.271,92Z" transform="translate(-127.149 -73.662)" fill="#fff"/>
              <path id="s-4" data-name="s" d="M133.915,90l.644,2-1.686-1.238h2.084L133.271,92Z" transform="translate(-124.893 -87.231)" fill="#fff"/>
              <path id="Trazado_754" data-name="Trazado 754" d="M133.915,90l.644,2-1.686-1.238h2.084L133.271,92Z" transform="translate(-124.893 -83.354)" fill="#fff"/>
              <path id="Trazado_755" data-name="Trazado 755" d="M133.915,90l.644,2-1.686-1.238h2.084L133.271,92Z" transform="translate(-124.893 -79.477)" fill="#fff"/>
              <path id="Trazado_756" data-name="Trazado 756" d="M133.915,90l.644,2-1.686-1.238h2.084L133.271,92Z" transform="translate(-124.893 -75.6)" fill="#fff"/>
              <path id="s-5" data-name="s" d="M133.915,90l.644,2-1.686-1.238h2.084L133.271,92Z" transform="translate(-122.637 -89.169)" fill="#fff"/>
              <path id="Trazado_757" data-name="Trazado 757" d="M133.915,90l.644,2-1.686-1.238h2.084L133.271,92Z" transform="translate(-122.637 -85.292)" fill="#fff"/>
              <path id="Trazado_758" data-name="Trazado 758" d="M133.915,90l.644,2-1.686-1.238h2.084L133.271,92Z" transform="translate(-122.637 -81.415)" fill="#fff"/>
              <path id="Trazado_759" data-name="Trazado 759" d="M133.915,90l.644,2-1.686-1.238h2.084L133.271,92Z" transform="translate(-122.637 -77.538)" fill="#fff"/>
              <path id="Trazado_760" data-name="Trazado 760" d="M133.915,90l.644,2-1.686-1.238h2.084L133.271,92Z" transform="translate(-122.637 -73.662)" fill="#fff"/>
              <path id="s-6" data-name="s" d="M133.915,90l.644,2-1.686-1.238h2.084L133.271,92Z" transform="translate(-120.382 -87.231)" fill="#fff"/>
              <path id="Trazado_761" data-name="Trazado 761" d="M133.915,90l.644,2-1.686-1.238h2.084L133.271,92Z" transform="translate(-120.382 -83.354)" fill="#fff"/>
              <path id="Trazado_762" data-name="Trazado 762" d="M133.915,90l.644,2-1.686-1.238h2.084L133.271,92Z" transform="translate(-120.382 -79.477)" fill="#fff"/>
              <path id="Trazado_763" data-name="Trazado 763" d="M133.915,90l.644,2-1.686-1.238h2.084L133.271,92Z" transform="translate(-120.382 -75.6)" fill="#fff"/>
              <path id="s-7" data-name="s" d="M133.915,90l.644,2-1.686-1.238h2.084L133.271,92Z" transform="translate(-118.126 -89.169)" fill="#fff"/>
              <path id="Trazado_764" data-name="Trazado 764" d="M133.915,90l.644,2-1.686-1.238h2.084L133.271,92Z" transform="translate(-118.126 -85.292)" fill="#fff"/>
              <path id="Trazado_765" data-name="Trazado 765" d="M133.915,90l.644,2-1.686-1.238h2.084L133.271,92Z" transform="translate(-118.126 -81.415)" fill="#fff"/>
              <path id="Trazado_766" data-name="Trazado 766" d="M133.915,90l.644,2-1.686-1.238h2.084L133.271,92Z" transform="translate(-118.126 -77.538)" fill="#fff"/>
              <path id="Trazado_767" data-name="Trazado 767" d="M133.915,90l.644,2-1.686-1.238h2.084L133.271,92Z" transform="translate(-118.126 -73.662)" fill="#fff"/>
              <path id="s-8" data-name="s" d="M133.915,90l.644,2-1.686-1.238h2.084L133.271,92Z" transform="translate(-115.871 -87.231)" fill="#fff"/>
              <path id="Trazado_768" data-name="Trazado 768" d="M133.915,90l.644,2-1.686-1.238h2.084L133.271,92Z" transform="translate(-115.871 -83.354)" fill="#fff"/>
              <path id="Trazado_769" data-name="Trazado 769" d="M133.915,90l.644,2-1.686-1.238h2.084L133.271,92Z" transform="translate(-115.871 -79.477)" fill="#fff"/>
              <path id="Trazado_770" data-name="Trazado 770" d="M133.915,90l.644,2-1.686-1.238h2.084L133.271,92Z" transform="translate(-115.871 -75.6)" fill="#fff"/>
              <path id="s-9" data-name="s" d="M133.915,90l.644,2-1.686-1.238h2.084L133.271,92Z" transform="translate(-113.615 -89.169)" fill="#fff"/>
              <path id="Trazado_771" data-name="Trazado 771" d="M133.915,90l.644,2-1.686-1.238h2.084L133.271,92Z" transform="translate(-113.615 -85.292)" fill="#fff"/>
              <path id="Trazado_772" data-name="Trazado 772" d="M133.915,90l.644,2-1.686-1.238h2.084L133.271,92Z" transform="translate(-113.615 -81.415)" fill="#fff"/>
              <path id="Trazado_773" data-name="Trazado 773" d="M133.915,90l.644,2-1.686-1.238h2.084L133.271,92Z" transform="translate(-113.615 -77.538)" fill="#fff"/>
              <path id="Trazado_774" data-name="Trazado 774" d="M133.915,90l.644,2-1.686-1.238h2.084L133.271,92Z" transform="translate(-113.615 -73.662)" fill="#fff"/>
              <path id="s-10" data-name="s" d="M133.915,90l.644,2-1.686-1.238h2.084L133.271,92Z" transform="translate(-111.36 -87.231)" fill="#fff"/>
              <path id="Trazado_775" data-name="Trazado 775" d="M133.915,90l.644,2-1.686-1.238h2.084L133.271,92Z" transform="translate(-111.36 -83.354)" fill="#fff"/>
              <path id="Trazado_776" data-name="Trazado 776" d="M133.915,90l.644,2-1.686-1.238h2.084L133.271,92Z" transform="translate(-111.36 -79.477)" fill="#fff"/>
              <path id="Trazado_777" data-name="Trazado 777" d="M133.915,90l.644,2-1.686-1.238h2.084L133.271,92Z" transform="translate(-111.36 -75.6)" fill="#fff"/>
              <path id="s-11" data-name="s" d="M133.915,90l.644,2-1.686-1.238h2.084L133.271,92Z" transform="translate(-109.104 -89.169)" fill="#fff"/>
              <path id="Trazado_778" data-name="Trazado 778" d="M133.915,90l.644,2-1.686-1.238h2.084L133.271,92Z" transform="translate(-109.104 -85.292)" fill="#fff"/>
              <path id="Trazado_779" data-name="Trazado 779" d="M133.915,90l.644,2-1.686-1.238h2.084L133.271,92Z" transform="translate(-109.104 -81.415)" fill="#fff"/>
              <path id="Trazado_780" data-name="Trazado 780" d="M133.915,90l.644,2-1.686-1.238h2.084L133.271,92Z" transform="translate(-109.104 -77.538)" fill="#fff"/>
              <path id="Trazado_781" data-name="Trazado 781" d="M133.915,90l.644,2-1.686-1.238h2.084L133.271,92Z" transform="translate(-109.104 -73.662)" fill="#fff"/>
            </g>
          </g>
        </g>
      </g>
    </g>
  </g>
</svg>
