<svg xmlns="http://www.w3.org/2000/svg" xmlns:xlink="http://www.w3.org/1999/xlink" width="180" height="60" viewBox="0 0 180 60">
  <defs>
    <clipPath id="clip-logo">
      <rect width="180" height="60"/>
    </clipPath>
  </defs>
  <g id="logo" clip-path="url(#clip-logo)">
    <g id="Grupo_477" data-name="Grupo 477" transform="translate(-127 -62)">
      <g id="Grupo_17" data-name="Grupo 17" transform="translate(127 62)">
        <g id="Grupo_1" data-name="Grupo 1" transform="translate(0 0)">
          <path id="Trazado_424" data-name="Trazado 424" d="M914.434-1120.928a10.3,10.3,0,0,1-3.49,8.021,13.191,13.191,0,0,1-9.169,3.139h-16.74v-38.361H898.7a12.274,12.274,0,0,1,8.489,2.877,9.416,9.416,0,0,1,3.224,7.353,8.95,8.95,0,0,1-3.253,7.207,10.508,10.508,0,0,1,5.353,3.662A9.874,9.874,0,0,1,914.434-1120.928Zm-16.327-21.8h-6.921v10.345h6.921a6.521,6.521,0,0,0,4.436-1.4,4.826,4.826,0,0,0,1.6-3.836,4.717,4.717,0,0,0-1.568-3.749A6.6,6.6,0,0,0,898.108-1142.724Zm10,21.621a5.52,5.52,0,0,0-1.834-4.388,7.394,7.394,0,0,0-5.028-1.6H891.187v11.915h10.056a7.371,7.371,0,0,0,5.058-1.6A5.492,5.492,0,0,0,908.1-1121.1Z" transform="translate(-820.502 1148.13)" fill="#0051b0"/>
          <path id="Trazado_425" data-name="Trazado 425" d="M1012.718-1108.053v17.262h-5.8v-3.2q-3.253,3.837-9.287,3.836a11.244,11.244,0,0,1-7.335-2.266,7.341,7.341,0,0,1-2.781-5.987,7.072,7.072,0,0,1,2.9-5.928,12.573,12.573,0,0,1,7.808-2.209h8.223v-1.859a6.009,6.009,0,0,0-1.627-4.534,6.333,6.333,0,0,0-4.584-1.569q-4.437,0-8.045,4.243l-3.608-3.6q4.259-6.1,12.245-6.1a11.889,11.889,0,0,1,8.666,3.139Q1012.718-1113.691,1012.718-1108.053Zm-6.27,6.452v-.523H999q-5.147,0-5.147,3.487a3.241,3.241,0,0,0,1.39,2.761,6.118,6.118,0,0,0,3.7,1.017,7.767,7.767,0,0,0,5.353-1.918A6.18,6.18,0,0,0,1006.449-1101.6Z" transform="translate(-888.973 1129.151)" fill="#0051b0"/>
          <path id="Trazado_426" data-name="Trazado 426" d="M1074.143-1095.673l3.549-3.836q3.963,4.069,8.163,4.068a6.1,6.1,0,0,0,3.372-.842,2.658,2.658,0,0,0,1.3-2.354,2.327,2.327,0,0,0-.887-1.888,13.28,13.28,0,0,0-3.194-1.656l-2.958-1.221a16.821,16.821,0,0,1-5.767-3.516,6.659,6.659,0,0,1-1.8-4.8,7.233,7.233,0,0,1,2.868-6.016,11.624,11.624,0,0,1,7.365-2.238,12.587,12.587,0,0,1,10.056,4.417l-3.372,3.778a9.177,9.177,0,0,0-6.8-2.906q-3.964,0-3.963,2.732a2.268,2.268,0,0,0,.828,1.773,11.108,11.108,0,0,0,3.017,1.6l2.78,1.1a18.018,18.018,0,0,1,6.063,3.691,6.822,6.822,0,0,1,1.863,4.911,7.633,7.633,0,0,1-3.076,6.452,12.612,12.612,0,0,1-7.691,2.266A14.076,14.076,0,0,1,1074.143-1095.673Z" transform="translate(-946.848 1129.151)" fill="#0051b0"/>
          <path id="Trazado_427" data-name="Trazado 427" d="M1182.219-1108.053v17.262h-5.8v-3.2q-3.253,3.837-9.287,3.836a11.246,11.246,0,0,1-7.335-2.266,7.341,7.341,0,0,1-2.78-5.987,7.072,7.072,0,0,1,2.9-5.928,12.573,12.573,0,0,1,7.808-2.209h8.222v-1.859a6.011,6.011,0,0,0-1.627-4.534,6.334,6.334,0,0,0-4.584-1.569q-4.436,0-8.045,4.243l-3.608-3.6q4.259-6.1,12.245-6.1a11.892,11.892,0,0,1,8.666,3.139Q1182.218-1113.691,1182.219-1108.053Zm-6.27,6.452v-.523H1168.5q-5.146,0-5.147,3.487a3.241,3.241,0,0,0,1.39,2.761,6.118,6.118,0,0,0,3.7,1.017,7.767,7.767,0,0,0,5.353-1.918A6.18,6.18,0,0,0,1175.949-1101.6Z" transform="translate(-1002.219 1129.151)" fill="#0051b0"/>
          <path id="Trazado_428" data-name="Trazado 428" d="M709.991-1066.668a8.668,8.668,0,0,0,2.174-6.3,8.576,8.576,0,0,0-2.174-6.2,7.926,7.926,0,0,0-6-2.376h-13.4v17.149h13.4a7.869,7.869,0,0,0,6-2.272" transform="translate(-690.594 1103.258)" fill="#0051b0"/>
          <path id="Trazado_429" data-name="Trazado 429" d="M709.991-1133.119a8.668,8.668,0,0,0,2.174-6.3,8.575,8.575,0,0,0-2.174-6.2,7.926,7.926,0,0,0-6-2.376h-13.4v17.149h13.4a7.869,7.869,0,0,0,6-2.272" transform="translate(-690.594 1148.039)" fill="#0051b0"/>
          <path id="Trazado_430" data-name="Trazado 430" d="M786.444-1133.347a8.456,8.456,0,0,0,2.174-6.205,8.367,8.367,0,0,0-2.174-6.1,7.989,7.989,0,0,0-6-2.34h-13.4v16.886h13.4a7.936,7.936,0,0,0,6-2.238" transform="translate(-741.673 1148.04)" fill="#0051b0"/>
          <path id="Trazado_431" data-name="Trazado 431" d="M786.444-1066.091a8.457,8.457,0,0,0,2.174-6.205,8.366,8.366,0,0,0-2.174-6.1,7.989,7.989,0,0,0-6-2.34h-13.4v16.886h13.4a7.937,7.937,0,0,0,6-2.238" transform="translate(-741.673 1102.716)" fill="#0051b0"/>
        </g>
        <g id="Grupo_2" data-name="Grupo 2" transform="translate(0 45.6)">
          <path id="Trazado_432" data-name="Trazado 432" d="M689.816-974.153a3.673,3.673,0,0,1,1.192-2.81,3.9,3.9,0,0,1,2.887-1.154,3.561,3.561,0,0,1,3.247,1.765l-1.161.9a2.446,2.446,0,0,0-2.071-1.161,2.306,2.306,0,0,0-1.726.712,2.418,2.418,0,0,0-.69,1.75,2.436,2.436,0,0,0,.69,1.765,2.3,2.3,0,0,0,1.726.712,2.506,2.506,0,0,0,2.071-1.146l1.161.882a3.637,3.637,0,0,1-1.365,1.3,3.848,3.848,0,0,1-1.883.465A3.978,3.978,0,0,1,691-971.335,3.8,3.8,0,0,1,689.816-974.153Z" transform="translate(-689.815 981.956)" fill="#0051b0"/>
          <path id="Trazado_433" data-name="Trazado 433" d="M717.211-973.17v-4.412h1.632v4.537a1.684,1.684,0,0,0,.486,1.254,1.709,1.709,0,0,0,1.255.48,1.644,1.644,0,0,0,1.216-.48,1.7,1.7,0,0,0,.479-1.254v-4.537h1.647v4.412a3.25,3.25,0,0,1-.949,2.431,3.28,3.28,0,0,1-2.393.929,3.335,3.335,0,0,1-2.424-.921A3.242,3.242,0,0,1,717.211-973.17Z" transform="translate(-708.142 981.593)" fill="#0051b0"/>
          <path id="Trazado_434" data-name="Trazado 434" d="M749.441-974.941v4.6H747.9v-.851a3.046,3.046,0,0,1-2.463,1.022,2.973,2.973,0,0,1-1.945-.6,1.96,1.96,0,0,1-.738-1.595,1.888,1.888,0,0,1,.769-1.58,3.324,3.324,0,0,1,2.071-.588h2.181v-.5a1.6,1.6,0,0,0-.431-1.208,1.674,1.674,0,0,0-1.216-.418,2.773,2.773,0,0,0-2.134,1.13l-.957-.96a3.714,3.714,0,0,1,3.248-1.626,3.146,3.146,0,0,1,2.3.836A3.12,3.12,0,0,1,749.441-974.941Zm-1.663,1.719v-.14H745.8q-1.365,0-1.365.929a.863.863,0,0,0,.369.735,1.616,1.616,0,0,0,.98.271,2.055,2.055,0,0,0,1.42-.511A1.65,1.65,0,0,0,747.777-973.222Z" transform="translate(-725.232 981.956)" fill="#0051b0"/>
          <path id="Trazado_435" data-name="Trazado 435" d="M776.6-975.1v4.753H774.95v-4.536a1.779,1.779,0,0,0-.463-1.278,1.6,1.6,0,0,0-1.216-.488,1.71,1.71,0,0,0-1.263.5,1.722,1.722,0,0,0-.494,1.27v4.536h-1.647v-7.6H771.4v.743a3.054,3.054,0,0,1,2.306-.914,2.766,2.766,0,0,1,2.11.821A3.068,3.068,0,0,1,776.6-975.1Z" transform="translate(-743.367 981.956)" fill="#0051b0"/>
          <path id="Trazado_436" data-name="Trazado 436" d="M801.986-990.092h1.663v11.612h-1.537v-1.084a3.1,3.1,0,0,1-2.7,1.254,3.547,3.547,0,0,1-2.691-1.138,3.956,3.956,0,0,1-1.075-2.826,3.884,3.884,0,0,1,1.067-2.841,3.461,3.461,0,0,1,2.7-1.138,3.155,3.155,0,0,1,2.573,1.1Zm-.643,9.646a2.419,2.419,0,0,0,.675-1.827,2.43,2.43,0,0,0-.682-1.834,2.279,2.279,0,0,0-1.64-.658,2.269,2.269,0,0,0-1.687.7,2.44,2.44,0,0,0-.682,1.781A2.48,2.48,0,0,0,798-980.5a2.247,2.247,0,0,0,1.695.7A2.284,2.284,0,0,0,801.342-980.446Z" transform="translate(-760.614 990.092)" fill="#0051b0"/>
          <path id="Trazado_437" data-name="Trazado 437" d="M825.553-974.153a3.685,3.685,0,0,1,1.184-2.81,3.878,3.878,0,0,1,2.879-1.154,3.91,3.91,0,0,1,2.9,1.161,3.682,3.682,0,0,1,1.192,2.8,3.7,3.7,0,0,1-1.192,2.818,3.907,3.907,0,0,1-2.9,1.161,3.852,3.852,0,0,1-2.879-1.169A3.715,3.715,0,0,1,825.553-974.153Zm6.464.015a2.464,2.464,0,0,0-.69-1.773,2.256,2.256,0,0,0-1.694-.72,2.273,2.273,0,0,0-1.71.72,2.464,2.464,0,0,0-.691,1.773,2.426,2.426,0,0,0,.683,1.758,2.272,2.272,0,0,0,1.7.7,2.285,2.285,0,0,0,1.71-.712A2.416,2.416,0,0,0,832.017-974.138Z" transform="translate(-780.62 981.956)" fill="#0051b0"/>
          <path id="Trazado_438" data-name="Trazado 438" d="M874.152-977.944h1.537v10.389h-1.663v-3.7a3.174,3.174,0,0,1-2.573,1.084,3.548,3.548,0,0,1-2.691-1.138,3.977,3.977,0,0,1-1.075-2.841,3.958,3.958,0,0,1,1.075-2.826,3.548,3.548,0,0,1,2.691-1.138,3.1,3.1,0,0,1,2.7,1.254Zm-.777,5.628a2.428,2.428,0,0,0,.682-1.835,2.42,2.42,0,0,0-.675-1.827,2.285,2.285,0,0,0-1.647-.65,2.247,2.247,0,0,0-1.695.7,2.481,2.481,0,0,0-.675,1.788,2.439,2.439,0,0,0,.682,1.781,2.267,2.267,0,0,0,1.687.7A2.277,2.277,0,0,0,873.375-972.316Z" transform="translate(-808.807 981.956)" fill="#0051b0"/>
          <path id="Trazado_439" data-name="Trazado 439" d="M898.827-973.17v-4.412h1.632v4.537a1.684,1.684,0,0,0,.486,1.254,1.71,1.71,0,0,0,1.255.48,1.644,1.644,0,0,0,1.216-.48,1.7,1.7,0,0,0,.479-1.254v-4.537h1.647v4.412a3.249,3.249,0,0,1-.949,2.431,3.281,3.281,0,0,1-2.393.929,3.337,3.337,0,0,1-2.424-.921A3.242,3.242,0,0,1,898.827-973.17Z" transform="translate(-829.638 981.593)" fill="#0051b0"/>
          <path id="Trazado_440" data-name="Trazado 440" d="M925.507-987.96a1,1,0,0,1-.329-.759,1.025,1.025,0,0,1,.329-.766,1.111,1.111,0,0,1,.8-.318,1.093,1.093,0,0,1,.785.318,1.027,1.027,0,0,1,.329.766,1,1,0,0,1-.329.759,1.1,1.1,0,0,1-.785.309A1.124,1.124,0,0,1,925.507-987.96Zm-.031,9.677v-7.6h1.647v7.6Z" transform="translate(-847.267 989.896)" fill="#0051b0"/>
          <path id="Trazado_441" data-name="Trazado 441" d="M944.208-973.611h-5.742a2.265,2.265,0,0,0,.839,1.463,2.63,2.63,0,0,0,1.671.534,3.322,3.322,0,0,0,2.243-.9L944-971.4a4.341,4.341,0,0,1-3.075,1.223,4.108,4.108,0,0,1-2.95-1.138,3.747,3.747,0,0,1-1.192-2.826,3.737,3.737,0,0,1,1.161-2.825,3.765,3.765,0,0,1,2.824-1.154,3.49,3.49,0,0,1,2.542,1,3.338,3.338,0,0,1,1.02,2.485A4.828,4.828,0,0,1,944.208-973.611ZM938.5-974.88h4.189a1.771,1.771,0,0,0-.58-1.355,2.025,2.025,0,0,0-1.4-.5,2.153,2.153,0,0,0-1.42.5A2.37,2.37,0,0,0,938.5-974.88Z" transform="translate(-855.032 981.956)" fill="#0051b0"/>
          <path id="Trazado_442" data-name="Trazado 442" d="M969.682-977.747v1.44h-.5a2.364,2.364,0,0,0-1.632.558,1.964,1.964,0,0,0-.627,1.548v4.057h-1.647v-7.6h1.538v.991a2.748,2.748,0,0,1,2.243-1.068A2.612,2.612,0,0,1,969.682-977.747Z" transform="translate(-874.089 981.758)" fill="#0051b0"/>
          <path id="Trazado_443" data-name="Trazado 443" d="M987.549-974.941v4.6h-1.538v-.851a3.046,3.046,0,0,1-2.463,1.022,2.974,2.974,0,0,1-1.945-.6,1.961,1.961,0,0,1-.737-1.595,1.887,1.887,0,0,1,.769-1.58,3.325,3.325,0,0,1,2.071-.588h2.181v-.5a1.6,1.6,0,0,0-.432-1.208,1.674,1.674,0,0,0-1.216-.418,2.772,2.772,0,0,0-2.133,1.13l-.957-.96a3.713,3.713,0,0,1,3.247-1.626,3.146,3.146,0,0,1,2.3.836A3.12,3.12,0,0,1,987.549-974.941Zm-1.663,1.719v-.14h-1.977q-1.365,0-1.365.929a.862.862,0,0,0,.369.735,1.615,1.615,0,0,0,.981.271,2.054,2.054,0,0,0,1.42-.511A1.649,1.649,0,0,0,985.886-973.222Z" transform="translate(-884.519 981.956)" fill="#0051b0"/>
          <path id="Trazado_444" data-name="Trazado 444" d="M1005.8-971.643l.941-1.021a3.043,3.043,0,0,0,2.165,1.083,1.613,1.613,0,0,0,.895-.225.708.708,0,0,0,.345-.627.621.621,0,0,0-.235-.5,3.521,3.521,0,0,0-.847-.441l-.785-.325a4.455,4.455,0,0,1-1.53-.937,1.778,1.778,0,0,1-.479-1.277,1.93,1.93,0,0,1,.761-1.6,3.075,3.075,0,0,1,1.954-.6,3.331,3.331,0,0,1,2.667,1.177l-.894,1.006a2.43,2.43,0,0,0-1.8-.774q-1.051,0-1.051.728a.607.607,0,0,0,.219.473,2.948,2.948,0,0,0,.8.426l.738.294a4.772,4.772,0,0,1,1.608.984,1.821,1.821,0,0,1,.494,1.308,2.037,2.037,0,0,1-.816,1.719,3.335,3.335,0,0,1-2.04.6A3.728,3.728,0,0,1,1005.8-971.643Z" transform="translate(-901.199 981.956)" fill="#0051b0"/>
          <path id="Trazado_445" data-name="Trazado 445" d="M1027.695-954.592l.157-4.4h1.914l-.738,4.4Z" transform="translate(-915.847 968.961)" fill="#0051b0"/>
          <path id="Trazado_446" data-name="Trazado 446" d="M1060.139-973.611H1054.4a2.262,2.262,0,0,0,.84,1.463,2.628,2.628,0,0,0,1.671.534,3.324,3.324,0,0,0,2.244-.9l.784,1.114a4.341,4.341,0,0,1-3.075,1.223,4.108,4.108,0,0,1-2.949-1.138,3.746,3.746,0,0,1-1.192-2.826,3.737,3.737,0,0,1,1.161-2.825,3.764,3.764,0,0,1,2.824-1.154,3.49,3.49,0,0,1,2.542,1,3.338,3.338,0,0,1,1.02,2.485A4.83,4.83,0,0,1,1060.139-973.611Zm-5.711-1.269h4.189a1.771,1.771,0,0,0-.58-1.355,2.024,2.024,0,0,0-1.4-.5,2.152,2.152,0,0,0-1.42.5A2.367,2.367,0,0,0,1054.428-974.88Z" transform="translate(-932.586 981.956)" fill="#0051b0"/>
          <path id="Trazado_447" data-name="Trazado 447" d="M1079.024-971.643l.941-1.021a3.045,3.045,0,0,0,2.165,1.083,1.609,1.609,0,0,0,.894-.225.708.708,0,0,0,.345-.627.621.621,0,0,0-.235-.5,3.515,3.515,0,0,0-.848-.441l-.784-.325a4.457,4.457,0,0,1-1.53-.937,1.777,1.777,0,0,1-.478-1.277,1.93,1.93,0,0,1,.761-1.6,3.074,3.074,0,0,1,1.953-.6,3.331,3.331,0,0,1,2.667,1.177l-.894,1.006a2.431,2.431,0,0,0-1.8-.774q-1.051,0-1.051.728a.607.607,0,0,0,.22.473,2.94,2.94,0,0,0,.8.426l.737.294a4.761,4.761,0,0,1,1.608.984,1.819,1.819,0,0,1,.495,1.308,2.037,2.037,0,0,1-.816,1.719,3.336,3.336,0,0,1-2.04.6A3.727,3.727,0,0,1,1079.024-971.643Z" transform="translate(-950.185 981.956)" fill="#0051b0"/>
          <path id="Trazado_448" data-name="Trazado 448" d="M1105.573-975.592v1.378a6.893,6.893,0,0,1-1.365.17,3.036,3.036,0,0,1-2.094-.666,2.521,2.521,0,0,1-.745-1.982v-3.716h-1.255v-1.408h1.255v-2h1.663v2h2.291v1.408h-2.291v3.577a1.242,1.242,0,0,0,.368,1.014,1.806,1.806,0,0,0,1.153.3C1104.731-975.514,1105.072-975.54,1105.573-975.592Z" transform="translate(-964.293 985.827)" fill="#0051b0"/>
          <path id="Trazado_449" data-name="Trazado 449" d="M1126.608-974.941v4.6h-1.538v-.851a3.045,3.045,0,0,1-2.463,1.022,2.976,2.976,0,0,1-1.946-.6,1.961,1.961,0,0,1-.737-1.595,1.888,1.888,0,0,1,.769-1.58,3.326,3.326,0,0,1,2.071-.588h2.181v-.5a1.6,1.6,0,0,0-.432-1.208,1.674,1.674,0,0,0-1.216-.418,2.772,2.772,0,0,0-2.134,1.13l-.957-.96a3.713,3.713,0,0,1,3.247-1.626,3.147,3.147,0,0,1,2.3.836A3.12,3.12,0,0,1,1126.608-974.941Zm-1.663,1.719v-.14h-1.977q-1.365,0-1.365.929a.863.863,0,0,0,.369.735,1.618,1.618,0,0,0,.981.271,2.055,2.055,0,0,0,1.42-.511A1.65,1.65,0,0,0,1124.945-973.222Z" transform="translate(-977.545 981.956)" fill="#0051b0"/>
          <path id="Trazado_450" data-name="Trazado 450" d="M1158.6-975.1v4.753h-1.663v-4.521a1.851,1.851,0,0,0-.432-1.285,1.5,1.5,0,0,0-1.169-.48,1.655,1.655,0,0,0-1.224.472,1.649,1.649,0,0,0-.47,1.215v4.6h-1.648v-4.521a1.836,1.836,0,0,0-.439-1.277,1.505,1.505,0,0,0-1.176-.488,1.624,1.624,0,0,0-1.224.488,1.761,1.761,0,0,0-.471,1.277v4.521h-1.648v-7.6h1.538v.712a2.978,2.978,0,0,1,2.228-.883,2.546,2.546,0,0,1,2.337,1.192,3.107,3.107,0,0,1,2.6-1.192,2.71,2.71,0,0,1,2.087.829A3.1,3.1,0,0,1,1158.6-975.1Z" transform="translate(-995.68 981.956)" fill="#0051b0"/>
          <path id="Trazado_451" data-name="Trazado 451" d="M1187.412-974.153a3.685,3.685,0,0,1,1.184-2.81,3.878,3.878,0,0,1,2.879-1.154,3.911,3.911,0,0,1,2.9,1.161,3.681,3.681,0,0,1,1.192,2.8,3.7,3.7,0,0,1-1.192,2.818,3.908,3.908,0,0,1-2.9,1.161,3.853,3.853,0,0,1-2.879-1.169A3.715,3.715,0,0,1,1187.412-974.153Zm6.464.015a2.466,2.466,0,0,0-.69-1.773,2.256,2.256,0,0,0-1.694-.72,2.273,2.273,0,0,0-1.71.72,2.463,2.463,0,0,0-.691,1.773,2.427,2.427,0,0,0,.683,1.758,2.271,2.271,0,0,0,1.7.7,2.286,2.286,0,0,0,1.71-.712A2.418,2.418,0,0,0,1193.876-974.138Z" transform="translate(-1022.693 981.956)" fill="#0051b0"/>
          <path id="Trazado_452" data-name="Trazado 452" d="M1215.566-971.643l.941-1.021a3.043,3.043,0,0,0,2.165,1.083,1.61,1.61,0,0,0,.894-.225.707.707,0,0,0,.346-.627.622.622,0,0,0-.235-.5,3.517,3.517,0,0,0-.848-.441l-.784-.325a4.465,4.465,0,0,1-1.53-.937,1.778,1.778,0,0,1-.478-1.277,1.929,1.929,0,0,1,.761-1.6,3.074,3.074,0,0,1,1.953-.6,3.331,3.331,0,0,1,2.667,1.177l-.894,1.006a2.43,2.43,0,0,0-1.8-.774q-1.051,0-1.051.728a.606.606,0,0,0,.219.473,2.949,2.949,0,0,0,.8.426l.737.294a4.764,4.764,0,0,1,1.608.984,1.818,1.818,0,0,1,.494,1.308,2.038,2.038,0,0,1-.815,1.719,3.337,3.337,0,0,1-2.04.6A3.726,3.726,0,0,1,1215.566-971.643Z" transform="translate(-1041.528 981.956)" fill="#0051b0"/>
        </g>
      </g>
    </g>
  </g>
</svg>
